<?xml version="1.0" encoding="UTF-8"?>
<svg id="_レイヤー_1" data-name="レイヤー_1" xmlns="http://www.w3.org/2000/svg" version="1.1" viewBox="0 0 300 60">
  <!-- Generator: Adobe Illustrator 29.7.1, SVG Export Plug-In . SVG Version: 2.1.1 Build 8)  -->
  <defs>
    <style>
      .st0 {
        fill: #c6b4a3;
      }
    </style>
  </defs>
  <g>
    <path class="st0" d="M23.3,18.9l-11.7-4.6c-.6-.2-2-.8-2-3.2,0-3.7,3.7-4.9,4.1-4.9h11.2l-.3-2.1h-10.9c-1.1,0-6.1,1.8-6.1,7s1.1,4.1,3.3,5l11.7,4.7c.8.3,1.7.9,1.7,2.8,0,4.1-4.4,5.1-4.6,5.1H6.8l.4,2.1h12.4c1.4,0,6.6-1.9,6.6-7.2s-1.6-4.2-3-4.7h0Z"/>
    <rect class="st0" x="36.9" y="4.2" width="2.1" height="26.7"/>
    <polygon class="st0" points="53.9 28.8 53.9 4.2 51.8 4.2 51.8 30.9 66.7 30.9 67.1 28.8 53.9 28.8"/>
    <polygon class="st0" points="88.1 14.6 96.6 4.2 93.9 4.2 77.1 24.8 77.1 4.2 75.1 4.2 75.1 30.9 77.1 30.9 77.1 28 86.6 16.4 94.8 30.8 97.2 30.8 88.1 14.6"/>
    <path class="st0" d="M130.3,24.2l5.2-5.4-1.4-1.4-5.3,5.4-9.9-9.1c-.4-.3-.8-1.6-.8-2v-2c0-.7.3-1.2.9-1.7l2.2-1.8c.5-.4,1-.6,1.6-.6h7.1l-.3-2.1h-6.8c-1,0-2,.4-2.8,1l-2.2,1.8c-1.1,1-1.7,2-1.7,3.4v2c0,.7.3,1.7.7,2.6l-5.2,4.8c-.9.8-1.4,2-1.4,3.3v1.7c0,1.2.4,2.1,1.2,3l2.3,2.4c.9,1,2,1.5,3.3,1.5h5c1.2,0,2.2-.4,3-1.2l3.9-4,5.7,5.2h3l-7.3-6.7h0ZM113,20.5l5.1-4.7,9.2,8.5-3.9,4c-.5.5-1.1.6-1.6.6h-5c-.7,0-1.3-.3-1.9-.8l-2.3-2.4c-.4-.4-.6-.9-.6-1.6v-1.7c0-.7.3-1.4.8-1.8h0Z"/>
    <path class="st0" d="M165.8,4.2h-13.6v26.7h13.6c3.5,0,7.3-4,7.3-7.6v-11.6c0-3.6-3.9-7.5-7.3-7.5h0ZM154.3,6.2h11.5c2.3,0,5.3,3,5.3,5.5v11.6c0,2.5-2.9,5.5-5.3,5.5h-11.5V6.2Z"/>
    <polygon class="st0" points="186.7 28.8 186.7 18.6 198.8 18.6 198.8 16.6 186.7 16.6 186.7 6.2 201 6.2 200.7 4.2 184.6 4.2 184.6 30.9 201.6 30.9 202.1 28.8 186.7 28.8"/>
    <polygon class="st0" points="234.7 4.2 234.7 27.3 215.7 4.4 215.6 4.2 213.8 4.2 213.8 30.9 215.9 30.9 215.9 7.7 234.9 30.7 235 30.9 236.8 30.9 236.8 4.2 234.7 4.2"/>
    <rect class="st0" x="249.6" y="4.2" width="2.1" height="26.7"/>
    <polygon class="st0" points="288.2 4.2 279.1 19.5 269.9 4.2 264.4 4.2 264.4 30.9 266.5 30.9 266.5 6.2 268.7 6.2 278.5 22.5 279.7 22.5 289.4 6.2 291.8 6.2 291.8 30.9 293.9 30.9 293.9 4.2 288.2 4.2"/>
  </g>
  <g>
    <polygon class="st0" points="55.8 49.2 54.1 55.6 53.3 55.6 51.5 49.2 50.6 49.2 48.8 55.6 47.9 55.6 46.3 49.2 45.6 49.2 47.4 56.2 49.3 56.2 51 50 52.8 56.2 54.6 56.2 56.5 49.2 55.8 49.2"/>
    <polygon class="st0" points="60.1 55.6 60.1 53 63.5 53 63.5 52.3 60.1 52.3 60.1 49.8 64.2 49.8 64.1 49.2 59.5 49.2 59.5 56.2 64.4 56.2 64.6 55.6 60.1 55.6"/>
    <path class="st0" d="M77.2,53.7v.2c0,.8-.9,1.7-1.6,1.7h-1.7c-.7,0-1.6-1-1.6-1.7v-2.5c0-.8.9-1.7,1.6-1.7h1.7c.7,0,1.6,1,1.6,1.7v.3h.5c0,0,.2-.1.2-.1v-.2c0-1.1-1.2-2.4-2.3-2.4h-1.7c-1.1,0-2.3,1.3-2.3,2.4v2.5c0,1.1,1.2,2.4,2.3,2.4h1.7c1,0,2.1-1.2,2.2-2.3v-.2h-.6v-.2Z"/>
    <path class="st0" d="M87.1,51.5h0c0-1.1-1-2.3-1.9-2.3h-3.9v7h.7v-2.4h3.1l1.1,2.4h.7l-1.2-2.6c.7-.4,1.3-1.3,1.3-2.2h0ZM82,49.8h3.2c.5,0,1.2.9,1.2,1.6h0c0,.8-.7,1.7-1.2,1.7h-3.2v-3.3h0Z"/>
    <polygon class="st0" points="91.2 55.6 91.2 53 94.6 53 94.6 52.3 91.2 52.3 91.2 49.8 95.3 49.8 95.2 49.2 90.6 49.2 90.6 56.2 95.5 56.2 95.7 55.6 91.2 55.6"/>
    <path class="st0" d="M103,49.2h-2.8l-2.1,7h.7l.4-1.4h4.8l.4,1.4h.7l-2.1-7ZM99.4,54.1l1.3-4.3h1.8l1.3,4.3h-4.4Z"/>
    <polygon class="st0" points="112.8 49.2 106.9 49.2 106.7 49.8 109.5 49.8 109.5 56.2 110.2 56.2 110.2 49.8 112.9 49.8 112.8 49.2"/>
    <polygon class="st0" points="116.2 55.6 116.2 53 119.6 53 119.6 52.3 116.2 52.3 116.2 49.8 120.3 49.8 120.2 49.2 115.5 49.2 115.5 56.2 120.5 56.2 120.6 55.6 116.2 55.6"/>
    <polygon class="st0" points="134 49.2 134 55.1 128.8 49.2 128.3 49.2 128.3 56.2 128.9 56.2 128.9 50.2 134.1 56.2 134.6 56.2 134.6 49.2 134 49.2"/>
    <polygon class="st0" points="139 55.6 139 53 142.4 53 142.4 52.3 139 52.3 139 49.8 143.1 49.8 143 49.2 138.3 49.2 138.3 56.2 143.2 56.2 143.4 55.6 139 55.6"/>
    <polygon class="st0" points="155.8 49.2 154.2 55.6 153.3 55.6 151.6 49.2 150.7 49.2 148.9 55.6 148 55.6 146.4 49.2 145.7 49.2 147.5 56.2 149.3 56.2 151.1 50 152.9 56.2 154.7 56.2 156.5 49.2 155.8 49.2"/>
    <path class="st0" d="M169.1,53.7v.2c0,.8-.9,1.7-1.6,1.7h-1.7c-.7,0-1.6-1-1.6-1.7v-2.5c0-.8.9-1.7,1.6-1.7h1.7c.7,0,1.6,1,1.6,1.7v.3h.5c0,0,.2-.1.2-.1v-.2c0-1.1-1.2-2.4-2.3-2.4h-1.7c-1.1,0-2.3,1.3-2.3,2.4v2.5c0,1.1,1.2,2.4,2.3,2.4h1.7c1,0,2.1-1.2,2.2-2.3v-.2h-.6c0-.1,0-.2,0-.2Z"/>
    <path class="st0" d="M176.7,49.2h-1.7c-1.1,0-2.3,1.2-2.3,2.3v2.7c0,1.1,1.1,2.3,2.3,2.3h1.7c1.1,0,2.3-1.1,2.3-2.3v-2.7c0-1.1-1.1-2.3-2.3-2.3ZM175.1,49.8h1.7c.7,0,1.6.8,1.6,1.6v2.7c0,.7-.9,1.6-1.6,1.6h-1.7c-.7,0-1.6-.8-1.6-1.6v-2.7c0-.7.9-1.6,1.6-1.6Z"/>
    <polygon class="st0" points="188.8 49.2 186.3 53.2 183.7 49.2 182.2 49.2 182.2 56.2 182.9 56.2 182.9 49.8 183.3 49.8 186.1 54.1 186.5 54.1 189.2 49.8 189.7 49.8 189.7 56.2 190.4 56.2 190.4 49.2 188.8 49.2"/>
    <path class="st0" d="M199.6,54.5h.2c0-.8,0-1.2-1.2-1.9.7-.6.9-1,.9-1.7s-.9-1.8-2-1.8h-3.5v7.4h3.5c1.1,0,2.4-1.1,2.4-1.9h-.2ZM197.9,52.3h-3.3v-2.6h2.9c.6,0,1.3.7,1.3,1.2s0,.7-.8,1.4h0ZM194.6,52.9h3.4c1.2.7,1.2.9,1.2,1.5h0c0,.5-.9,1.4-1.7,1.4h-2.8v-2.8Z"/>
    <rect class="st0" x="203.2" y="49.2" width=".7" height="7"/>
    <polygon class="st0" points="213.6 49.2 213.6 55.1 208.5 49.2 207.9 49.2 207.9 56.2 208.6 56.2 208.6 50.2 213.7 56.2 214.3 56.2 214.3 49.2 213.6 49.2"/>
    <path class="st0" d="M222.4,49.2h-2.8l-2.1,7h.7l.4-1.4h4.8l.4,1.4h.7l-2.1-7h0ZM218.8,54.1l1.3-4.3h1.8l1.3,4.3h-4.4Z"/>
    <polygon class="st0" points="232 49.2 226.1 49.2 225.9 49.8 228.7 49.8 228.7 56.2 229.4 56.2 229.4 49.8 232.2 49.8 232 49.2"/>
    <rect class="st0" x="234.8" y="49.2" width=".7" height="7"/>
    <path class="st0" d="M243,49.2h-1.7c-1.1,0-2.3,1.2-2.3,2.3v2.7c0,1.1,1.1,2.3,2.3,2.3h1.7c1.1,0,2.3-1.1,2.3-2.3v-2.7c0-1.1-1.1-2.3-2.3-2.3ZM241.3,49.8h1.7c.7,0,1.6.8,1.6,1.6v2.7c0,.7-.9,1.6-1.6,1.6h-1.7c-.7,0-1.6-.8-1.6-1.6v-2.7c0-.7.9-1.6,1.6-1.6Z"/>
    <polygon class="st0" points="254.4 49.2 254.4 55.1 249.2 49.2 248.7 49.2 248.7 56.2 249.3 56.2 249.3 50.2 254.5 56.2 255 56.2 255 49.2 254.4 49.2"/>
  </g>
</svg>